<svg width="520" height="221" viewBox="0 0 520 221" fill="none" xmlns="http://www.w3.org/2000/svg">
	<path d="M0.00122094 110.949C1.83043 111.098 2.86963 110.075 2.91205 108.426C2.95976 106.671 1.98419 105.509 0.0012207 105.647L0.00122094 110.949Z" fill="#78C9C8" fill-opacity="0.28"/>
	<path d="M0.00122093 57.929L2.68406 55.3098C1.79331 54.4137 0.897267 53.523 0.0012207 52.627C0.00122078 54.3925 0.00122086 56.1634 0.00122093 57.929Z" fill="#78C9C8" fill-opacity="0.28"/>
	<path d="M0.00122089 216.46L2.20157 214.271C1.46989 213.587 0.732904 212.903 0.0012207 212.219C0.00122077 213.634 0.00122083 215.045 0.00122089 216.46Z" fill="#78C9C8" fill-opacity="0.28"/>
	<path d="M0.00122089 4.37836L2.19097 2.33707L0.0012207 0.136719L0.00122089 4.37836Z" fill="#78C9C8" fill-opacity="0.28"/>
	<path d="M503.526 118.929C494.773 118.929 487.732 125.933 487.689 134.703C487.641 143.573 494.778 150.715 503.617 150.657C512.307 150.598 519.433 143.398 519.38 134.74C519.321 125.991 512.243 118.929 503.532 118.924L503.526 118.929Z" fill="#78C9C8" fill-opacity="0.28"/>
	<path d="M487.689 81.7723C487.673 90.5472 494.661 97.6201 503.399 97.6678C512.232 97.7156 519.422 90.5313 519.358 81.714C519.294 72.9868 512.211 65.951 503.468 65.9351C494.767 65.9192 487.705 73.008 487.684 81.7723L487.689 81.7723Z" fill="#78C9C8" fill-opacity="0.28"/>
	<path d="M492.121 108.187C492.09 99.8361 485.149 92.954 476.899 93.1025C468.48 93.2509 461.783 100.064 461.852 108.415C461.916 116.771 468.755 123.52 477.127 123.494C485.457 123.467 492.159 116.628 492.127 108.187L492.121 108.187Z" fill="#78C9C8" fill-opacity="0.28"/>
	<path d="M450.453 120.371C442.415 120.403 436 126.856 436.042 134.862C436.085 142.868 442.58 149.267 450.607 149.214C458.671 149.161 465.029 142.751 464.991 134.708C464.954 126.67 458.533 120.339 450.453 120.371Z" fill="#78C9C8" fill-opacity="0.28"/>
	<path d="M450.553 96.2364C458.591 96.2523 465.012 89.8262 464.991 81.7883C464.97 73.7398 458.591 67.3986 450.506 67.388C442.462 67.3773 436.052 73.7928 436.058 81.836C436.063 89.8633 442.468 96.2205 450.553 96.2364Z" fill="#78C9C8" fill-opacity="0.28"/>
	<path d="M477.032 69.1534C484.773 69.1534 490.96 62.9235 490.907 55.1719C490.86 47.6006 484.603 41.4343 477 41.4502C469.259 41.4661 463.082 47.7173 463.141 55.4688C463.204 63.0932 469.355 69.1534 477.027 69.1587L477.032 69.1534Z" fill="#78C9C8" fill-opacity="0.28"/>
	<path d="M476.767 147.449C469.053 147.544 462.955 153.901 463.141 161.664C463.321 169.24 469.604 175.232 477.26 175.141C484.821 175.051 490.971 168.753 490.908 161.171C490.844 153.44 484.572 147.353 476.767 147.449Z" fill="#78C9C8" fill-opacity="0.28"/>
	<path d="M410.301 108.266C410.253 115.907 416.366 122.068 424.012 122.078C431.631 122.089 437.781 115.986 437.861 108.33C437.94 100.801 431.689 94.5394 424.081 94.5288C416.409 94.5182 410.348 100.563 410.301 108.272L410.301 108.266Z" fill="#78C9C8" fill-opacity="0.28"/>
	<path d="M410.613 134.761C410.587 127.47 404.686 121.59 397.454 121.654C390.232 121.718 384.374 127.704 384.442 134.946C384.511 142.046 390.386 147.878 397.501 147.915C404.718 147.952 410.629 142.014 410.608 134.761L410.613 134.761Z" fill="#78C9C8" fill-opacity="0.28"/>
	<path d="M384.448 81.7932C384.448 89.0517 390.365 94.9688 397.592 94.937C404.839 94.9052 410.656 88.9881 410.597 81.6925C410.544 74.5082 404.792 68.7396 397.623 68.676C390.418 68.6176 384.448 74.5612 384.448 81.7932Z" fill="#78C9C8" fill-opacity="0.28"/>
	<path d="M411.435 55.2988C411.414 62.2551 417.076 67.9548 424.017 67.9548C430.968 67.9548 436.678 62.2657 436.662 55.3466C436.646 48.3744 430.968 42.6641 424.059 42.68C417.087 42.6959 411.456 48.3267 411.435 55.2988Z" fill="#78C9C8" fill-opacity="0.28"/>
	<path d="M371.018 120.658C377.958 120.695 383.419 115.244 383.419 108.272C383.419 101.417 378.064 96.0032 371.23 95.9342C364.263 95.8653 358.727 101.258 358.648 108.193C358.568 115.064 364.077 120.615 371.012 120.652L371.018 120.658Z" fill="#78C9C8" fill-opacity="0.28"/>
	<path d="M462.499 28.5345C462.361 21.9387 456.921 16.6897 450.358 16.8063C443.661 16.9283 438.343 22.4636 438.513 29.1336C438.677 35.6817 444.212 41.0155 450.692 40.8883C457.415 40.7504 462.642 35.284 462.499 28.5345Z" fill="#78C9C8" fill-opacity="0.28"/>
	<path d="M356.278 134.893C356.315 128.345 351.14 123.107 344.613 123.086C338.044 123.065 332.901 128.218 332.901 134.809C332.901 141.378 338.065 146.505 344.661 146.489C351.034 146.473 356.246 141.272 356.278 134.888L356.278 134.893Z" fill="#78C9C8" fill-opacity="0.28"/>
	<path d="M344.613 93.5004C351.156 93.4898 356.331 88.2302 356.272 81.6344C356.214 75.2349 350.965 70.0813 344.534 70.1078C337.954 70.1343 332.832 75.3515 332.896 81.9791C332.959 88.4317 338.118 93.511 344.613 93.5004Z" fill="#78C9C8" fill-opacity="0.28"/>
	<path d="M382.369 161.282C382.38 155.015 377.454 150.01 371.192 149.925C364.888 149.84 359.698 154.962 359.687 161.271C359.676 167.591 364.804 172.628 371.187 172.581C377.481 172.533 382.364 167.597 382.369 161.282Z" fill="#78C9C8" fill-opacity="0.28"/>
	<path d="M382.37 55.1827C382.332 48.9316 377.333 43.9954 371.055 44.0113C364.682 44.0272 359.592 49.149 359.687 55.4584C359.788 61.6777 364.825 66.651 371.06 66.6775C377.37 66.7093 382.407 61.5876 382.364 55.1827L382.37 55.1827Z" fill="#78C9C8" fill-opacity="0.28"/>
	<path d="M318.204 119.348C324.147 119.316 329.174 114.242 329.142 108.309C329.105 102.175 324.052 97.1747 317.96 97.2436C311.953 97.3126 307.038 102.281 307.038 108.288C307.038 114.406 312.064 119.385 318.204 119.348Z" fill="#78C9C8" fill-opacity="0.28"/>
	<path d="M408.381 28.8952C408.413 22.7501 403.651 17.9941 397.469 18.01C391.536 18.026 386.637 22.8932 386.632 28.7785C386.627 34.7751 391.621 39.7591 397.623 39.7325C403.54 39.706 408.354 34.8547 408.381 28.8952Z" fill="#78C9C8" fill-opacity="0.28"/>
	<path d="M291.9 145.078C297.621 144.914 302.038 140.296 301.916 134.607C301.794 128.796 297.022 124.247 291.275 124.459C285.559 124.671 281.148 129.294 281.254 134.962C281.365 140.768 286.079 145.243 291.895 145.078L291.9 145.078Z" fill="#78C9C8" fill-opacity="0.28"/>
	<path d="M301.884 81.4913C301.72 75.7916 297.096 71.3856 291.402 71.4969C285.586 71.6136 281.116 76.3165 281.301 82.1382C281.482 87.8432 286.126 92.281 291.784 92.1431C297.626 92.0053 302.054 87.3342 301.889 81.4913L301.884 81.4913Z" fill="#78C9C8" fill-opacity="0.28"/>
	<path d="M318.193 65.394C323.766 65.3357 328.246 60.7653 328.177 55.2088C328.103 49.631 323.532 45.1614 317.971 45.225C312.377 45.294 307.987 49.7954 308.013 55.4368C308.04 61.0145 312.578 65.4524 318.193 65.394Z" fill="#78C9C8" fill-opacity="0.28"/>
	<path d="M318.167 171.366C323.723 171.335 328.209 166.78 328.182 161.197C328.151 155.625 323.628 151.176 318.013 151.203C312.403 151.229 307.992 155.709 308.019 161.351C308.05 166.929 312.578 171.398 318.167 171.366Z" fill="#78C9C8" fill-opacity="0.28"/>
	<path d="M265.03 117.9C270.422 117.927 274.642 113.802 274.706 108.436C274.775 102.943 270.533 98.6644 265.04 98.6856C259.68 98.7068 255.481 102.927 255.491 108.288C255.502 113.68 259.659 117.874 265.024 117.9L265.03 117.9Z" fill="#78C9C8" fill-opacity="0.28"/>
	<path d="M247.575 134.899C247.623 129.973 243.678 125.896 238.79 125.822C233.758 125.747 229.628 129.798 229.628 134.814C229.628 139.697 233.684 143.758 238.567 143.774C243.487 143.79 247.522 139.814 247.57 134.904L247.575 134.899Z" fill="#78C9C8" fill-opacity="0.28"/>
	<path d="M264.992 170.131C269.738 170.205 273.857 166.255 273.979 161.521C274.101 156.669 270.072 152.481 265.215 152.396C260.385 152.316 256.292 156.378 256.233 161.298C256.18 165.99 260.21 170.051 264.992 170.126L264.992 170.131Z" fill="#78C9C8" fill-opacity="0.28"/>
	<path d="M291.678 196.328C296.439 196.291 300.172 192.474 300.145 187.681C300.119 182.914 296.317 179.197 291.503 179.234C286.704 179.272 282.998 183.047 283.035 187.861C283.073 192.622 286.895 196.371 291.678 196.334L291.678 196.328Z" fill="#78C9C8" fill-opacity="0.28"/>
	<path d="M220.439 108.383C220.492 103.898 216.813 100.128 212.28 100.022C207.778 99.9211 203.971 103.558 203.844 108.086C203.717 112.683 207.481 116.554 212.12 116.596C216.574 116.633 220.386 112.869 220.439 108.383Z" fill="#78C9C8" fill-opacity="0.28"/>
	<path d="M178.087 134.729C178.06 138.982 181.326 142.301 185.578 142.327C189.831 142.354 193.155 139.082 193.176 134.846C193.197 130.562 189.963 127.285 185.695 127.259C181.406 127.232 178.118 130.461 178.087 134.729Z" fill="#78C9C8" fill-opacity="0.28"/>
	<path d="M211.972 153.753C207.757 153.811 204.496 157.199 204.586 161.425C204.676 165.666 208.016 168.879 212.269 168.816C216.463 168.752 219.75 165.343 219.67 161.133C219.596 156.913 216.235 153.694 211.972 153.758L211.972 153.753Z" fill="#78C9C8" fill-opacity="0.28"/>
	<path d="M238.716 195.21C242.798 195.141 246.059 191.806 246.038 187.723C246.016 183.497 242.634 180.242 238.376 180.353C234.304 180.459 231.096 183.837 231.176 187.935C231.256 191.997 234.659 195.273 238.716 195.204L238.716 195.21Z" fill="#78C9C8" fill-opacity="0.28"/>
	<path d="M159.004 115.191C162.848 115.249 165.939 112.269 166.003 108.436C166.072 104.581 163.108 101.485 159.275 101.411C155.479 101.337 152.303 104.375 152.228 108.16C152.154 111.935 155.229 115.132 158.999 115.185L159.004 115.191Z" fill="#78C9C8" fill-opacity="0.28"/>
	<path d="M165.431 161.361C165.468 157.793 162.658 154.951 159.1 154.967C155.712 154.983 152.865 157.804 152.812 161.192C152.753 164.659 155.738 167.66 159.19 167.612C162.605 167.559 165.399 164.765 165.431 161.361Z" fill="#78C9C8" fill-opacity="0.28"/>
	<path d="M191.936 187.718C191.93 184.319 189.136 181.514 185.722 181.467C182.217 181.424 179.28 184.33 179.306 187.813C179.333 191.143 182.249 194.08 185.552 194.102C189.046 194.128 191.951 191.223 191.941 187.718L191.936 187.718Z" fill="#78C9C8" fill-opacity="0.28"/>
	<path d="M138.878 81.7351C138.846 78.3524 135.978 75.5423 132.595 75.5847C129.186 75.6271 126.434 78.4531 126.466 81.8835C126.498 85.2821 129.366 88.0975 132.738 88.0445C136.137 87.9862 138.904 85.139 138.873 81.7404L138.878 81.7351Z" fill="#78C9C8" fill-opacity="0.28"/>
	<path d="M126.471 135.153C126.683 138.563 129.7 141.251 133.024 141.007C136.449 140.752 139.074 137.783 138.857 134.411C138.634 131.018 135.617 128.33 132.282 128.563C128.873 128.796 126.259 131.76 126.471 135.159L126.471 135.153Z" fill="#78C9C8" fill-opacity="0.28"/>
	<path d="M212.195 220.384C215.641 220.342 218.43 217.484 218.313 214.117C218.191 210.718 215.254 207.924 211.924 208.057C208.653 208.184 205.954 210.984 205.949 214.255C205.949 217.653 208.775 220.426 212.195 220.389L212.195 220.384Z" fill="#78C9C8" fill-opacity="0.28"/>
	<path d="M106.116 113.743C109.25 113.759 111.71 111.358 111.71 108.288C111.71 105.223 109.202 102.789 106.101 102.832C103.047 102.874 100.751 105.149 100.703 108.171C100.65 111.342 102.967 113.728 106.122 113.743L106.116 113.743Z" fill="#78C9C8" fill-opacity="0.28"/>
	<path d="M137.812 187.85C137.865 185.029 135.49 182.585 132.685 182.585C129.96 182.585 127.638 184.812 127.521 187.548C127.399 190.379 129.695 192.861 132.521 192.945C135.347 193.03 137.759 190.708 137.812 187.85Z" fill="#78C9C8" fill-opacity="0.28"/>
	<path d="M101.175 55.2195C101.122 58.0561 103.264 60.3254 106.064 60.3943C108.778 60.4632 111.175 58.1674 111.244 55.4316C111.318 52.7116 109.038 50.3363 106.281 50.2621C103.508 50.1878 101.228 52.3988 101.175 55.2142L101.175 55.2195Z" fill="#78C9C8" fill-opacity="0.28"/>
	<path d="M111.249 161.351C111.291 158.631 108.985 156.245 106.265 156.192C103.513 156.139 101.212 158.392 101.175 161.186C101.138 164.039 103.269 166.25 106.095 166.282C108.895 166.319 111.212 164.102 111.249 161.351Z" fill="#78C9C8" fill-opacity="0.28"/>
	<path d="M79.5799 86.6025C82.321 86.6609 84.4418 84.5878 84.4524 81.8307C84.4631 79.2009 82.4801 77.1066 79.8874 77.0058C77.1833 76.8998 74.9194 78.9888 74.8398 81.6557C74.7603 84.3439 76.8652 86.5442 79.5799 86.6025Z" fill="#78C9C8" fill-opacity="0.28"/>
	<path d="M79.7229 139.597C82.4323 139.597 84.5054 137.439 84.4471 134.676C84.3941 132.025 82.4005 130.042 79.7495 130C77.0295 129.957 74.861 132.062 74.8398 134.772C74.8185 137.433 77.0083 139.597 79.7229 139.597Z" fill="#78C9C8" fill-opacity="0.28"/>
	<path d="M49.0715 108.357C49.098 110.626 51.0969 112.556 53.3185 112.466C55.487 112.381 57.2738 110.547 57.3109 108.362C57.348 106.061 55.4976 104.152 53.2018 104.126C50.9644 104.105 49.045 106.066 49.0768 108.352L49.0715 108.357Z" fill="#78C9C8" fill-opacity="0.28"/>
	<path d="M79.6909 32.8714C81.8542 32.8502 83.7417 30.9256 83.7152 28.7623C83.6887 26.562 81.8171 24.8176 79.5584 24.8759C77.3633 24.9343 75.7621 26.5673 75.7409 28.7729C75.7197 31.0369 77.5065 32.8926 79.6909 32.8714Z" fill="#78C9C8" fill-opacity="0.28"/>
	<path d="M52.8466 51.5664C50.853 51.736 49.2836 53.5334 49.395 55.5164C49.5116 57.6478 51.3355 59.2119 53.5094 59.0423C55.5878 58.8779 57.0405 57.213 56.9239 55.124C56.8019 52.9555 54.9992 51.3808 52.8519 51.5664L52.8466 51.5664Z" fill="#78C9C8" fill-opacity="0.28"/>
	<path d="M53.112 165.051C55.2859 165.088 56.9613 163.408 56.9295 161.223C56.8977 159.14 55.3548 157.591 53.2499 157.538C51.0972 157.485 49.3529 159.198 49.3953 161.335C49.4324 163.328 51.1238 165.014 53.112 165.046L53.112 165.051Z" fill="#78C9C8" fill-opacity="0.28"/>
	<path d="M23.3036 135.249C23.4627 136.956 24.6132 138.075 26.6651 138.165C28.6269 138.25 30.2864 136.606 30.1379 134.687C29.9789 132.646 28.7753 131.484 26.734 131.373C24.767 131.267 23.2506 132.879 23.3036 135.249Z" fill="#78C9C8" fill-opacity="0.28"/>
	<path d="M30.1697 81.6871C30.0106 79.8791 28.9767 78.6172 26.9301 78.4051C24.979 78.2036 23.2929 79.7518 23.3035 81.7189C23.3141 83.8026 24.47 84.9903 26.49 85.2183C28.367 85.4303 30.1113 83.7867 30.1697 81.6871Z" fill="#78C9C8" fill-opacity="0.28"/>
	<path d="M26.082 25.5867C25.3397 26.663 24.1573 27.6704 23.9665 28.8421C23.6908 30.5335 24.9473 31.6204 26.7023 31.631C28.4679 31.6416 29.7033 30.4911 29.4647 28.8474C29.295 27.681 28.0809 26.6736 27.328 25.592L26.082 25.592L26.082 25.5867Z" fill="#78C9C8" fill-opacity="0.28"/>
</svg>
